# xmcd
# Track frame offsets:
# 150
# 16449
# 32124
# 48452
# 66535
# 81459
# 95902
# 108628
# 120290
#
# Disc length: 1781 seconds
# Revision: 0
# Processed by: cddbd v1.5.1PL0 Copyright (c) Steve Scherf et al.
# Submitted via: VisiTrax 2.9.10.228 - For more info visit www.synapsa.com
#
DISCID=7f06f309
DTITLE=Various Artist - Hits Monthly Nashville  PHN0104
DYEAR=1900
DGENRE=Karaoke
TTITLE0=Hill, Faith - If My Heart Had Wings
TTITLE1=Gill, Vince - Shoot Straight From The Heart
TTITLE2=Jackson, Alan - When Somebody Loves You
TTITLE3=Clark, Terri - No Fear
TTITLE4=Davidson, Clay - Sometimes
TTITLE5=Edwards, Meredith - Rose Is Still A Rose, A
TTITLE6=Rogers, Kenny - There You Go Again
TTITLE7=Heatherly, Eric - Wrong Five O'Clock
TTITLE8=Allan, Gary - Right Where I Need To Be
EXTD=
EXTT0=
EXTT1=
EXTT2=
EXTT3=
EXTT4=
EXTT5=
EXTT6=
EXTT7=
EXTT8=
PLAYORDER=
